<svg width="106" height="42" viewBox="0 0 106 42" fill="none" xmlns="http://www.w3.org/2000/svg">
 <g clip-path="url(#clip0_157_367)">
  <path
   d="M0.0988589 26.3825C0.0988589 22.1791 0.131809 17.9415 0.0659089 13.7381C0.032959 12.0294 0.691958 10.6966 1.81226 9.63719C4.97545 6.69822 8.13865 3.75925 11.3677 0.922794C12.9164 -0.409997 15.4865 -0.273301 17.0022 1.12784C19.8688 3.82759 22.6696 6.56152 25.5033 9.29545C25.668 9.46632 25.8328 9.67137 25.9975 9.84224C27.1837 11.1409 27.7768 12.5762 27.7439 14.4557C27.678 17.4631 27.8098 20.4704 27.8427 23.4777C27.8427 24.2637 27.8098 25.0839 27.7439 25.8699C27.5462 27.8178 26.7224 28.8089 24.8443 29.0823C23.5263 29.2873 22.1753 29.3215 20.8573 29.3557C19.1769 29.424 17.5294 29.3898 15.8489 29.424C14.5639 29.4582 13.4436 30.005 12.5869 30.996C10.6099 33.3199 8.6329 35.6779 6.6559 38.0359C5.83215 39.0269 4.97545 40.018 4.1517 41.0432C3.39385 42.0001 2.43831 42.1368 1.35096 41.7609C0.527208 41.4875 0.032959 40.8723 0.032959 39.9496C0.032959 35.4045 0.032959 30.8935 0.032959 26.3483C0.032959 26.3825 0.0659089 26.3825 0.0988589 26.3825ZM3.8881 35.9171C4.25055 35.507 4.51415 35.2678 4.71185 34.9944C5.6674 33.7641 6.55705 32.4997 7.5126 31.3036C8.33635 30.2442 9.226 29.219 10.1486 28.2621C11.7302 26.5192 13.7401 25.6307 16.0137 25.5965C18.3861 25.5623 20.7585 25.6649 23.1309 25.699C24.0535 25.699 24.2841 25.5282 24.2512 24.5371C24.2182 21.1539 24.1523 17.8048 24.1194 14.4216C24.1194 13.4647 23.7899 12.6445 23.032 12.0636C22.6037 11.756 22.2083 11.3801 21.8458 11.0042C19.7041 9.05624 17.5953 7.07414 15.4206 5.12621C14.2673 4.10099 13.6413 4.06681 12.488 5.05786C9.98385 7.24501 7.54555 9.46632 5.0743 11.7218C4.44825 12.3028 4.0858 13.0546 4.0858 13.9431C3.98695 20.8121 3.85515 27.7153 3.7563 34.5843C3.78925 34.9602 3.85515 35.3361 3.8881 35.9171Z"
   fill="#0414FE" />
  <path
   d="M32.5875 11.4827C35.0588 11.551 37.4641 11.5168 39.8694 11.7902C42.143 12.0295 43.4939 13.8065 43.5598 16.1303C43.6257 18.6592 42.3407 20.4363 40.0342 20.9147C39.2763 21.0856 38.5185 21.0856 37.7607 21.1198C37.0687 21.1539 36.3768 21.1198 35.6189 21.1198C35.6189 23.0335 35.6189 24.8448 35.6189 26.7585C34.5975 26.7585 33.609 26.7585 32.5875 26.7585C32.5875 21.7349 32.5875 16.6771 32.5875 11.4827ZM35.6189 18.7618C36.7722 18.6934 37.8595 18.6934 38.9139 18.5225C39.9353 18.3517 40.4625 17.5315 40.4955 16.4037C40.5284 15.2418 40.0671 14.3533 39.0786 14.1824C37.9584 13.9774 36.8051 13.9774 35.6189 13.8749C35.6189 15.5836 35.6189 17.1214 35.6189 18.7618Z"
   fill="#1C1C1C" />
  <path
   d="M94.2039 17.9072C94.2369 17.8731 94.3028 17.8731 94.3028 17.8389C95.7855 14.729 99.5748 14.1139 102.277 15.0708C104.88 15.9935 106.231 18.454 105.967 21.6322C105.736 24.1953 103.825 26.3141 101.321 26.7583C100.102 26.9975 98.8828 26.9634 97.6637 26.5533C94.4346 25.4939 92.853 21.9739 94.0392 18.4882C94.1051 18.3173 94.138 18.1123 94.2039 17.9072ZM99.8713 17.3263C98.6522 17.2579 97.7296 17.8047 97.1694 18.8983C96.6422 19.9235 96.6422 21.0512 96.9388 22.1448C97.3342 23.4776 98.3886 24.2636 99.7395 24.2636C101.025 24.2978 102.112 23.6143 102.573 22.4866C102.936 21.598 102.969 20.6753 102.771 19.7526C102.474 18.249 101.387 17.3604 99.8713 17.3263Z"
   fill="#1C1C1C" />
  <path
   d="M55.1582 22.5892C54.664 24.7422 53.3789 26.0067 51.4678 26.6218C50.0839 27.1002 48.6341 27.0661 47.2502 26.5876C44.5483 25.6991 42.9997 22.9993 43.4281 19.8895C43.8894 16.4721 46.2617 14.49 49.6885 14.6609C52.4234 14.7975 54.4004 16.1987 55.0264 18.5909C55.2241 19.2744 55.1912 20.0262 55.2571 20.7438C55.29 21.1881 55.0923 21.359 54.631 21.359C52.1598 21.3248 49.6556 21.359 47.1843 21.359C46.9537 21.359 46.723 21.359 46.4924 21.359C46.3276 22.4867 46.8219 23.5461 47.7445 24.0929C49.2272 24.9814 51.0395 24.4347 51.8632 22.8626C51.9291 22.7259 52.1268 22.5892 52.2916 22.5551C53.2142 22.5551 54.1697 22.5892 55.1582 22.5892ZM52.2257 20.0604C52.3245 18.215 51.2042 17.0872 49.359 17.0872C47.6127 17.0872 46.3606 18.3858 46.4924 20.0604C48.3705 20.0604 50.2816 20.0604 52.2257 20.0604Z"
   fill="#1C1C1C" />
  <path
   d="M94.2039 17.9074C93.479 17.9416 92.7541 17.9416 92.0292 18.0783C90.7771 18.3175 90.0193 19.2402 89.9863 20.573C89.9204 22.6234 89.9863 24.6739 89.9863 26.7927C88.9649 26.7927 87.9764 26.7927 86.9549 26.7927C86.9549 22.8627 86.9549 18.8985 86.9549 14.9343C87.9434 14.9343 88.899 14.9343 89.9204 14.9343C89.9204 15.6177 89.9204 16.2671 89.9204 16.9164C90.5465 16.3696 91.1066 15.7544 91.7986 15.3785C92.4905 15.0026 93.3143 14.8317 94.2039 14.5242C94.2039 15.7544 94.2039 16.848 94.2039 17.9074Z"
   fill="#1C1C1C" />
  <path
   d="M86.1641 19.0692C85.7358 16.8137 84.1871 15.1734 82.1113 14.7633C79.9036 14.3532 78.2232 15.105 77.037 16.9504C77.004 16.9846 76.9711 17.0188 76.9711 17.0529C76.9382 17.0188 76.9381 16.9846 76.9381 16.9504V14.8316H73.8738V26.5192C73.8079 26.5192 73.742 26.5533 73.7091 26.5875C72.0616 24.6738 70.4141 22.76 68.7007 20.8121C69.3267 20.0603 69.9528 19.3084 70.5788 18.5566C71.4685 17.4972 72.3581 16.472 73.2478 15.4126C73.4125 15.2417 73.5114 15.0025 73.6432 14.7974H72.424C71.8639 14.7974 71.3037 14.8658 70.7436 14.8316C70.3152 14.8316 70.0516 14.9341 69.788 15.3101C68.7007 16.6429 67.6463 17.9756 66.5919 19.3084C66.493 19.4451 66.4271 19.616 66.3612 19.7869C66.2953 19.7185 66.2294 19.6502 66.1635 19.616V10.8333H63.0333V14.8658C62.6379 14.8658 62.1766 14.7291 61.8141 14.8316C60.595 15.105 59.6394 15.891 58.7827 17.0871V14.9H55.7513V26.7584H58.7827V26.0407C58.7827 24.2295 58.7498 22.4525 58.8157 20.6071C58.8486 19.1717 59.6394 18.3174 60.9904 18.0098C61.5176 17.9073 62.0448 17.9415 62.539 17.8731C62.7367 17.8731 62.8685 17.7364 63.0333 17.6339V26.7242H66.1965V21.5981C67.4486 23.2726 68.6348 24.8105 69.788 26.3483C70.0187 26.69 70.2823 26.8609 70.7106 26.8267C71.765 26.7926 72.7535 26.8267 73.8738 26.8267V32.4655H76.9381V24.4004C77.4653 25.494 78.0914 26.1091 78.981 26.5192C81.5841 27.6811 84.6484 26.4167 85.7687 23.7511C86.4277 22.2474 86.4607 20.6754 86.1641 19.0692ZM82.6714 22.8625C82.0454 23.9903 81.0239 24.332 79.8048 24.1953C77.9925 24.127 76.8063 22.7258 76.8393 20.7437C76.8722 18.7616 78.0584 17.3947 79.8048 17.3605C81.0569 17.2238 82.1442 17.6681 82.7703 18.83C83.4622 20.1628 83.4622 21.5981 82.6714 22.8625Z"
   fill="#1C1C1C" />
  <path
   d="M13.9049 13.3962C14.7946 14.0455 15.6842 14.6607 16.5079 15.31C16.6397 15.4125 16.8045 15.6517 16.8045 15.8568C16.8374 17.1212 16.8045 18.4198 16.8045 19.7185C14.8934 19.7185 13.0153 19.7185 11.1042 19.7185C11.1042 18.3857 11.1042 17.087 11.1042 15.7543C11.1042 15.6176 11.203 15.4467 11.3019 15.3783C12.1586 14.729 13.0153 14.0797 13.9049 13.3962Z"
   fill="#0415FE" />
 </g>
 <defs>
  <clipPath id="clip0_157_367">
   <rect width="106" height="42" fill="#ff0000" />
  </clipPath>
 </defs>
</svg>